<?xml version="1.0" encoding="UTF-8"?><svg id="Layer_1" xmlns="http://www.w3.org/2000/svg" viewBox="0 0 922.51 763.12"><defs><style>.cls-1{fill:#5bcc27;}.cls-1,.cls-2{stroke-width:0px;}.cls-2{fill:#4eb523;}</style></defs><path class="cls-1" d="m920.48,361.52c-1.95-1.42-6.12-2.49-12.51-3.21-1.54-.15-3.04-.29-4.55-.44-17.13-1.67-34.26-1.91-51.47-1.95h-4.29c-24.23-.07-48.11.88-72.07,4.78-1.42.23-2.81.48-4.19.72-41.77,7.19-80.95,19.82-119.54,37.17-.84.38-1.64.75-2.47,1.12,14.51-81.08,29.73-160.9,100.08-212.21,3.79-2.63,7.61-5.11,10.84-8.44.79-4.14.65-5.92-1.21-9.65-6.37-1.73-10.99-.88-17.26,1.01-1.15.37-2.27.74-3.38,1.1-51.35,16.21-99.6,39.43-141.91,72.96-.9.72-1.76,1.41-2.63,2.1-8.91,7.01-17.25,14.43-25.22,22.49-.6.6-1.17,1.18-1.76,1.77-8.65,8.68-17.12,17.45-25,26.86-3.38,4.08-6.95,7.86-10.72,11.58-3.61-19.77-7.24-39.53-10.87-59.27-1.02-5.58-2.05-11.17-3.07-16.75-2.8-15.25-5.6-30.51-8.41-45.75-1.33-7.19-2.66-14.4-3.97-21.59-7.9-43.03-15.98-85.97-26.1-128.54-.83-3.46-1.64-6.93-2.46-10.41-.57-2.39-1.12-4.78-1.69-7.17-.28-1.13-.54-2.25-.81-3.37-1.15-5.01-2.09-9.61-4.73-14.06-1.21-1.17-2.79-1.96-4.75-2.36-5.07.98-7.28,4.07-9.4,8.66-.43,1.27-.85,2.53-1.28,3.77-.77,2.24-1.54,4.48-2.28,6.75-.56,1.67-1.1,3.31-1.67,4.96-1.88,5.59-3.73,11.2-5.55,16.81-.33,1.02-.65,2.05-.98,3.06-24.56,75.8-43.58,152.28-52.95,231.48-1.15,9.67-2.4,19.31-3.71,28.96l-1.21-1.21c-22.24-29.22-51.78-55-82.11-75.63-.78-.51-1.54-1.04-2.31-1.54-31.89-21.51-66.54-37.61-102.92-49.9-.91-.31-1.78-.6-2.65-.89-9.63-3.29-19.21-7.07-29.47-7.1-3.27,2.49-3.6,3.51-4.45,7.7.56,2.91,1.44,4.86,2.67,5.85,2.64,1.47,5.23,2.99,7.81,4.55,71.9,50.08,86.79,132.59,101.28,213.42-40.71-18.89-82.83-32.33-127.25-39.16-1.43-.21-2.81-.43-4.17-.63-38.81-6.04-79.62-5.65-118.7-2.26-.86.09-1.71.15-2.56.22-4.39.37-8.76.83-13.14,1.29-3.37.82-4.64,1.59-6.68,4.37-.35,1.96-.35,3.97,0,6.03,3.34,4.56,6.65,5.56,12.12,6.53,60.22,9.93,107.24,47.99,143.99,94.81.62.79,1.24,1.57,1.85,2.35,18.06,24.61,35.21,49.84,51.49,75.68,25.72,40.86,50.84,82.99,81.89,120.09.57.66,1.11,1.32,1.67,1.97,7,8.36,14.45,16.19,22.67,23.37,2.74,2.34,5.42,4.71,8.06,7.15,7.57,7.02,15.37,13.62,23.72,19.72.75.56,1.48,1.08,2.22,1.61,18.73,13.73,39.21,25.02,61.32,32.33,42.76,13.05,87.03,8.76,126.72-11.75.83-.43,1.64-.86,2.46-1.29,11.24-5.86,21.89-12.23,32.07-19.8,2.04-1.54,4.08-3.08,6.14-4.58,12.52-9.14,23.33-19.78,34.08-30.92.85-.86,1.65-1.73,2.48-2.57,30.12-31.2,54.44-67.24,77.42-103.86.73-1.16,1.44-2.32,2.16-3.45,3.84-6.13,7.67-12.25,11.51-18.39.77-1.23,1.52-2.43,2.26-3.63,1.44-2.29,2.88-4.61,4.32-6.92,16.97-27.24,33.91-55.32,54.48-80.03,2.92-3.42,5.84-6.83,8.68-10.31,4.42-5.53,8.85-10.94,13.95-15.84.84-.8,1.64-1.56,2.47-2.34,31.99-30.57,67.96-53.46,111.76-62.55,1.22-.22,2.41-.46,3.61-.68,1.13-.22,2.24-.45,3.34-.65,1.97-.36,3.8-.77,5.49-1.22,2.41-1.61,3.97-3.8,4.68-6.56.1-2.86-.32-4.95-1.26-6.3Zm-399.39-10.96c.58-.92,1.14-1.81,1.7-2.7,7.04-11.22,14.69-21.74,23.08-31.98,1.16-1.4,2.31-2.8,3.45-4.19,15.57-19.98,34.42-37.91,54.18-53.74,1.25-1,2.48-1.96,3.69-2.92,24.8-19.91,71.82-57.88,104.91-57.88-1.27,2.98-2.6,5.04-4.78,7.47-25.9,26.7-42.73,61.94-52.21,97.63-.3,1.15-.6,2.28-.89,3.42-6.28,23.88-10.75,48-14.95,72.31-.25,1.37-.47,2.69-.69,4.01-.45,2.55-.89,5.09-1.33,7.63-.7,4.18-1.42,8.36-2.32,12.51-4.56,7.34-10.78,13.15-18.67,17.42-12.35,7.04-24.13,14.57-35.58,22.99-1.62,1.2-3.26,2.39-4.88,3.58-10.66,7.74-20.83,15.88-30.7,24.6-1.4,1.26-2.81,2.51-4.23,3.75-6.09,5.24-11.97,10.61-17.66,16.29-.94.95-1.85,1.86-2.76,2.78-7.49,7.53-14.82,15.11-21.78,23.14-.99,1.15-1.96,2.27-2.94,3.39-.99,1.15-1.97,2.27-2.95,3.38-.9,1.05-1.76,2.06-2.62,3.06-1.51,1.75-3.5,2.49-5.98,2.22-1.72-6.69-3.44-13.4-5.14-20.11-.68-2.74-1.39-5.48-2.08-8.23-1.05-4.02-2.08-8.06-3.11-12.08-.32-1.31-.65-2.58-.97-3.85-2.35-9.07-4.56-17.28-2.38-26.61.38-1.06.75-2.07,1.12-3.07.44-1.2.86-2.37,1.28-3.53.48-1.28.95-2.51,1.41-3.76,12.6-33.97,27.59-66.16,46.76-96.91Zm-120.32-35.12c.07-.92.15-1.8.23-2.7.25-3.38.51-6.77.81-10.14.2-2.18.41-4.37.61-6.54,3.58-40.19,9.01-80.06,19-119.2.66-2.58,1.32-5.17,1.97-7.75,12.02-44.69,24.65-89.2,37.89-133.54h2.41c4.34,18.74,8.55,37.53,12.42,56.39.2.98.39,1.93.59,2.88,4.54,22.07,8.73,44.19,12.79,66.35.59,3.14,1.15,6.26,1.73,9.39,2.05,11.12,4.09,22.23,6.13,33.36,1.88,10.32,3.77,20.63,5.68,30.96,1.68,9.05,3.34,18.08,4.98,27.12.98,5.37,1.95,10.73,2.96,16.09.93,5.07,1.87,10.14,2.8,15.21.34,1.87.68,3.76,1.01,5.63,2,10.62,6.15,23.59,1.88,33.98-.66.88-1.31,1.72-1.95,2.58-.79,1.15-1.56,2.26-2.35,3.38-21.12,30.26-36.05,64.88-48.94,99.3-.31.86-.63,1.69-.93,2.51h-2.41c-12.8-34.22-27.91-67.28-47.63-98.12-5.52-8.46-12.28-16.54-11.69-27.13Zm-182.93-108.39c-3.31-3.65-6.56-7.37-9.75-11.12,33.91,0,84.49,39.93,109.37,60.6,1.31,1.11,2.65,2.21,3.97,3.3,12.25,9.47,23.6,20.15,34.16,31.55.59.63,1.17,1.27,1.75,1.91.47.51.95,1.04,1.41,1.56,3.51,3.89,6.92,7.86,10.25,11.87,1.02,1.26,2.05,2.5,3.07,3.76,49.11,57.69,78.26,130.06,95.28,203.21.22.95.45,1.89.65,2.82.63,2.68,1.26,5.36,1.86,8.04.19.85.37,1.68.57,2.51,1.6,7.14,3.34,14.83.32,21.78-.65.9-1.28,1.77-1.91,2.65-2.54,3.69-4.58,5.66-8.74,7.39-2.03-3.05-4.18-5.81-6.54-8.59-.57-.67-1.12-1.31-1.67-1.96-6.4-7.54-12.86-15.01-19.35-22.47-1.27-1.46-2.52-2.91-3.79-4.36-5.04-5.88-10.19-11.57-15.67-17.05-.88-.88-1.72-1.71-2.56-2.55-23.64-23.53-48.66-45.47-76.06-64.51-.74-.51-1.45-1-2.17-1.49-9.25-6.43-18.57-12.47-28.48-17.86-.83-.44-1.62-.86-2.42-1.28-.78-.43-1.54-.83-2.31-1.23-.67-.36-1.33-.72-2-1.06-7.73-5.32-9.13-9.52-10.88-18.71-.39-2.28-.79-4.58-1.22-6.87-.77-4.13-1.55-8.26-2.28-12.4-1.32-7.44-2.68-14.86-4.06-22.28-.15-.83-.31-1.64-.46-2.46-9.59-51.8-23.45-105.07-60.34-144.68Zm325.44,516.99c-11.73,7.96-25.43,13.52-38.85,17.84-37.67,11.4-77.08,7.53-112.05-10.64-.76-.39-1.49-.78-2.23-1.16-11.22-5.86-21.88-12.24-32.05-19.81-2.04-1.54-4.08-3.07-6.14-4.57-12.52-9.14-23.32-19.79-34.07-30.91-.84-.88-1.67-1.73-2.49-2.58-19.51-20.2-35.56-42.86-51.08-66.2-.57-.85-1.12-1.7-1.68-2.53-8.94-13.44-17.78-26.95-26.41-40.63-4.52-7.18-9.11-14.32-13.68-21.47-3.95-6.18-7.92-12.34-11.83-18.55-14.06-22.37-28.43-44.61-45.28-65.02-1.06-1.28-2.12-2.56-3.18-3.85-25.76-33.19-58.8-60.41-97.43-77.02-4.13-1.71-7.88-2.97-11.08-6.17,70.71-.92,140.92,6.56,205.23,38.68,2.29,1.16,4.59,2.33,6.92,3.45,27.41,13.15,53.29,29.14,77.33,47.72.79.6,1.55,1.18,2.31,1.78,8.22,6.29,16.3,12.62,23.97,19.59,2.84,2.66,5.68,5.31,8.62,7.86,9.31,7.91,18.14,16.57,26.11,25.83,2.1,2.48,4.23,4.84,6.53,7.13,4.81,4.69,9.35,9.43,13.59,14.64,2.87,3.6,5.75,7.18,8.73,10.67,27.01,31.55,51.82,65.97,72.34,102.13,1.53,2.72,3.1,5.42,4.69,8.11,8.59,14.35,16.81,28.85,24.53,43.7.44.85.89,1.7,1.32,2.54,1.29,2.44,2.56,4.91,3.83,7.37.39.78.79,1.53,1.17,2.27,1.4,2.64,2.57,5.1,3.5,7.39-.41.82-.8,1.62-1.21,2.41Zm323.15-352.08c-17.48,8.7-35.14,17.15-51.01,28.65-.69.5-1.37.99-2.05,1.49-16.12,11.65-30.1,25.48-43.22,40.4-.89,1.02-1.74,2.02-2.59,3-27.97,31.73-50.45,67.97-72.49,103.92-22.6,36.87-45.21,74.67-73.9,107.17-1.06,1.2-2.1,2.37-3.13,3.53-15.65,18.87-39.27,43.58-61.49,54.26-.37-.68-.74-1.34-1.1-2.01-.53-.98-1.05-1.92-1.56-2.86-1.23-2.24-2.44-4.48-3.67-6.72-3.32-6.09-6.66-12.17-9.94-18.27-18.11-33.76-37.42-67.33-60.15-98.24-3.48-4.62-8.27-9.55-9.19-15.37,1.2-2.24,2.37-4.05,3.52-5.42.57-.66,1.12-1.31,1.68-1.95,1.14-1.4,2.27-2.8,3.41-4.18,1.16-1.38,2.31-2.74,3.45-4.11,5.51-6.88,11.1-13.61,17.03-20.13,2.72-2.92,5.42-5.85,8.03-8.87,9.71-11.43,20.67-21.74,31.79-31.8,1.17-1.06,2.32-2.08,3.45-3.11,13.28-12.12,26.86-23.86,41.28-34.59.73-.53,1.43-1.06,2.13-1.58,22.5-16.68,46.29-31.1,71.6-43.11,1.07-.51,2.1-1,3.15-1.51,64.85-31.24,133.73-40.91,204.99-39.78v1.21Z"/><path class="cls-2" d="m544.62,722.2c-.41.82-.8,1.63-1.21,2.42-11.75,7.98-25.47,13.55-38.92,17.87-37.73,11.42-77.2,7.54-112.23-10.66-.76-.4-1.5-.78-2.23-1.17-11.24-5.87-21.92-12.26-32.11-19.84-2.04-1.54-4.08-3.08-6.15-4.58-12.54-9.15-23.36-19.82-34.13-30.96-.84-.88-1.67-1.73-2.49-2.59-19.54-20.23-35.61-42.93-51.16-66.31-.57-.86-1.12-1.7-1.68-2.53-8.96-13.46-17.81-27-26.45-40.69-4.52-7.2-9.12-14.35-13.71-21.5-3.96-6.19-7.93-12.36-11.85-18.58-14.08-22.41-28.47-44.68-45.35-65.12-1.06-1.28-2.13-2.57-3.19-3.86-25.8-33.24-58.9-60.5-97.59-77.15-4.14-1.71-7.89-2.97-11.1-6.18,70.82-.92,141.15,6.58,205.57,38.75,2.3,1.17,4.6,2.33,6.93,3.45,27.46,13.17,53.37,29.19,77.46,47.8.79.6,1.55,1.19,2.31,1.79,8.23,6.3,16.33,12.64,24.01,19.62,2.84,2.66,5.69,5.31,8.64,7.87,9.32,7.92,18.17,16.59,26.15,25.87,2.11,2.48,4.23,4.84,6.54,7.14,4.82,4.69,9.37,9.44,13.61,14.67,2.88,3.6,5.76,7.2,8.75,10.69,27.05,31.6,51.91,66.07,72.46,102.3,1.53,2.73,3.1,5.43,4.69,8.13,8.61,14.37,16.84,28.9,24.57,43.77.44.86.89,1.7,1.33,2.54,1.29,2.45,2.57,4.92,3.84,7.38.4.78.79,1.53,1.18,2.28,1.4,2.64,2.58,5.11,3.51,7.4Z"/><path class="cls-2" d="m867.09,370.75v1.21c-17.51,8.71-35.2,17.18-51.1,28.7-.69.5-1.37.99-2.05,1.5-16.14,11.66-30.15,25.52-43.29,40.47-.89,1.03-1.74,2.02-2.6,3-28.01,31.79-50.53,68.08-72.61,104.09-22.63,36.93-45.28,74.79-74.02,107.34-1.06,1.2-2.11,2.37-3.13,3.54-15.67,18.9-39.33,43.65-61.59,54.35-.37-.68-.74-1.35-1.1-2.01-.53-.98-1.05-1.92-1.56-2.87-1.23-2.25-2.45-4.49-3.68-6.74-3.33-6.1-6.67-12.19-9.95-18.3-18.14-33.82-37.49-67.44-60.25-98.41-3.49-4.63-8.29-9.57-9.21-15.4,1.2-2.25,2.37-4.05,3.53-5.43.57-.66,1.12-1.32,1.68-1.96,1.14-1.4,2.28-2.8,3.41-4.19,1.17-1.38,2.31-2.75,3.45-4.12,5.52-6.9,11.12-13.63,17.05-20.16,2.73-2.93,5.43-5.86,8.04-8.88,9.73-11.45,20.7-21.78,31.84-31.85,1.18-1.06,2.32-2.08,3.45-3.11,13.3-12.14,26.9-23.9,41.34-34.65.73-.53,1.43-1.06,2.14-1.58,22.54-16.71,46.37-31.16,71.72-43.18,1.07-.51,2.11-1.01,3.15-1.51,64.95-31.29,133.95-40.98,205.32-39.85Z"/><path class="cls-2" d="m712.09,197.14c-1.27,2.98-2.6,5.04-4.78,7.47-25.9,26.7-42.73,61.94-52.21,97.63-.3,1.15-.6,2.28-.89,3.42-6.28,23.88-10.75,48-14.95,72.31-.25,1.37-.47,2.69-.69,4.01-.45,2.55-.89,5.09-1.33,7.63-.7,4.18-1.42,8.36-2.32,12.51-4.56,7.34-10.78,13.15-18.67,17.42-12.35,7.04-24.13,14.57-35.58,22.99-1.62,1.2-3.26,2.39-4.88,3.58-10.66,7.74-20.83,15.88-30.7,24.6-1.4,1.26-2.81,2.51-4.23,3.75-6.09,5.24-11.97,10.61-17.66,16.29-.94.95-1.85,1.86-2.76,2.78-7.49,7.53-14.82,15.11-21.78,23.14-.99,1.15-1.96,2.27-2.94,3.39-.99,1.15-1.97,2.27-2.95,3.38-.9,1.05-1.76,2.06-2.62,3.06-1.51,1.75-3.5,2.49-5.98,2.22-1.72-6.69-3.44-13.4-5.14-20.11-.68-2.74-1.39-5.48-2.08-8.23-1.05-4.02-2.08-8.06-3.11-12.08-.32-1.31-.65-2.58-.97-3.85-2.35-9.07-4.56-17.28-2.38-26.61.38-1.06.75-2.07,1.12-3.07.44-1.2.86-2.37,1.28-3.53.48-1.28.95-2.51,1.41-3.76,12.6-33.97,27.59-66.16,46.76-96.91.58-.92,1.14-1.81,1.7-2.7,7.04-11.22,14.69-21.74,23.08-31.98,1.16-1.4,2.31-2.8,3.45-4.19,15.57-19.98,34.42-37.91,54.18-53.74,1.25-1,2.48-1.96,3.69-2.92,24.8-19.91,71.82-57.88,104.91-57.88Z"/><path class="cls-2" d="m516.76,332.84c-.66.88-1.32,1.72-1.96,2.59-.79,1.15-1.56,2.27-2.35,3.39-21.16,30.31-36.11,64.98-49.02,99.47-.31.87-.63,1.69-.93,2.51h-2.42c-12.82-34.28-27.96-67.39-47.71-98.28-5.53-8.48-12.3-16.57-11.71-27.18.07-.92.15-1.81.24-2.7.25-3.39.51-6.78.81-10.16.2-2.18.41-4.37.61-6.55,3.58-40.25,9.02-80.19,19.03-119.39.66-2.59,1.33-5.17,1.98-7.76,12.04-44.77,24.69-89.35,37.96-133.76h2.42c4.35,18.77,8.56,37.59,12.45,56.48.2.98.4,1.94.59,2.89,4.54,22.11,8.75,44.26,12.81,66.46.59,3.14,1.15,6.27,1.73,9.41,2.05,11.14,4.09,22.27,6.14,33.41,1.88,10.34,3.77,20.67,5.69,31.01,1.68,9.07,3.35,18.11,4.99,27.17.98,5.38,1.96,10.75,2.96,16.11.93,5.08,1.87,10.16,2.8,15.24.34,1.87.68,3.76,1.02,5.63,2,10.64,6.16,23.63,1.88,34.03Z"/><path class="cls-2" d="m470.75,549.11c-.65.9-1.28,1.77-1.91,2.65-2.54,3.7-4.59,5.67-8.76,7.4-2.03-3.06-4.19-5.82-6.55-8.61-.57-.67-1.12-1.32-1.67-1.97-6.42-7.55-12.88-15.03-19.38-22.51-1.27-1.46-2.52-2.92-3.8-4.36-5.05-5.89-10.21-11.59-15.7-17.07-.88-.88-1.72-1.71-2.57-2.56-23.68-23.56-48.74-45.55-76.19-64.62-.74-.51-1.45-1.01-2.17-1.5-9.27-6.44-18.6-12.49-28.53-17.89-.83-.44-1.63-.87-2.43-1.28-.78-.43-1.54-.83-2.31-1.23-.67-.36-1.34-.72-2-1.06-7.74-5.32-9.14-9.54-10.89-18.74-.4-2.29-.79-4.59-1.22-6.89-.77-4.14-1.55-8.28-2.29-12.42-1.33-7.45-2.68-14.88-4.06-22.31-.15-.83-.31-1.65-.46-2.46-9.6-51.89-23.49-105.24-60.44-144.92-3.31-3.66-6.58-7.38-9.76-11.14,33.97,0,84.63,40,109.55,60.7,1.32,1.11,2.65,2.21,3.98,3.3,12.27,9.48,23.64,20.19,34.21,31.6.59.63,1.18,1.27,1.75,1.91.47.51.95,1.04,1.41,1.56,3.52,3.89,6.93,7.87,10.26,11.89,1.03,1.26,2.05,2.5,3.08,3.76,49.19,57.79,78.39,130.28,95.43,203.55.22.95.45,1.89.65,2.82.63,2.68,1.26,5.37,1.86,8.05.19.86.37,1.68.57,2.51,1.6,7.15,3.35,14.85.32,21.81Z"/></svg>